<svg xmlns="http://www.w3.org/2000/svg" version="1.1" xmlns:xlink="http://www.w3.org/1999/xlink" xmlns:svgjs="http://svgjs.com/svgjs" width="1440" height="560" preserveAspectRatio="none" viewBox="0 0 1440 560"><g mask="url(&quot;#SvgjsMask1002&quot;)" fill="none"><rect width="1440" height="560" x="0" y="0" fill="rgba(131, 189, 117, 1)"></rect><path d="M -351.3709269749255,279 C -255.37,281 -63.37,297.4 128.6290730250745,289 C 320.63,280.6 416.63,224 608.6290730250745,237 C 800.63,250 896.63,346.8 1088.6290730250744,354 C 1280.63,361.2 1498.35,260.4 1568.6290730250744,273 C 1638.9,285.6 1465.73,388.2 1440,417" stroke="rgba(233, 239, 192, 1)" stroke-width="2"></path><path d="M -121.96922770179134,120 C -25.97,157 166.03,302.6 358.03077229820866,305 C 550.03,307.4 646.03,110.8 838.0307722982086,132 C 1030.03,153.2 1126.03,396.6 1318.0307722982086,411 C 1510.03,425.4 1773.64,191.4 1798.0307722982086,204 C 1822.42,216.6 1511.61,420 1440,474" stroke="rgba(233, 239, 192, 1)" stroke-width="2"></path><path d="M -649.2598713390043,238 C -553.26,278.4 -361.26,469.4 -169.2598713390044,440 C 22.74,410.6 118.74,99.2 310.7401286609956,91 C 502.74,82.8 598.74,373.8 790.7401286609957,399 C 982.74,424.2 1140.89,224 1270.7401286609957,217 C 1400.59,210 1406.15,334.6 1440,364" stroke="rgba(233, 239, 192, 1)" stroke-width="2"></path><path d="M -278.41061638961736,87 C -182.41,153.6 9.59,419.8 201.58938361038264,420 C 393.59,420.2 489.59,72 681.5893836103826,88 C 873.59,104 969.59,475.2 1161.5893836103826,500 C 1353.59,524.8 1585.91,216 1641.5893836103826,212 C 1697.27,208 1480.32,426.4 1440,480" stroke="rgba(233, 239, 192, 1)" stroke-width="2"></path></g><defs><mask id="SvgjsMask1002"><rect width="1440" height="560" fill="#ffffff"></rect></mask></defs></svg>